<svg width="32" height="32" viewBox="0 0 32 32" fill="none" xmlns="http://www.w3.org/2000/svg">
<path d="M32 12.4057V25.4912C31.9958 26.7802 31.6332 28.0391 30.9577 29.11C30.2822 30.1809 29.324 31.016 28.2032 31.5105C27.459 31.8371 26.6612 32.0035 25.856 31.9999H6.12807C5.32274 32.0022 4.52493 31.8354 3.7805 31.5091C3.03606 31.1828 2.35968 30.7034 1.79022 30.0986C1.22077 29.4937 0.769462 28.7753 0.462249 27.9846C0.155037 27.1939 -0.00202708 26.3466 8.38882e-05 25.4912V6.52576C-0.00414239 5.66897 0.15136 4.81976 0.457626 4.0271C0.763891 3.23444 1.21486 2.51402 1.78453 1.90738C2.3542 1.30073 3.03129 0.819868 3.77678 0.492507C4.52226 0.165147 5.32139 -0.00223223 6.12807 2.24795e-05H11.0561C12.0681 0.00311447 13.064 0.269629 13.9565 0.776238C14.8491 1.28285 15.6112 2.01411 16.176 2.90602L17.568 5.16623C17.7155 5.39464 17.9132 5.58133 18.144 5.71005C18.3736 5.84673 18.6329 5.91705 18.896 5.91397H25.856C26.6603 5.90815 27.4577 6.07188 28.202 6.39568C28.9463 6.71948 29.6227 7.19691 30.192 7.80032C31.3438 9.02152 31.9938 10.6772 32 12.4057Z" fill="#0083D5"/>
<path d="M23.529 12.3103C23.5454 12.2114 23.5358 12.1099 23.5011 12.0159C23.4663 11.9219 23.4077 11.8386 23.331 11.7743C23.2543 11.71 23.1622 11.6668 23.0638 11.6492C22.9653 11.6315 22.864 11.6399 22.7698 11.6735L6.68931 17.431C6.58331 17.4689 6.49075 17.5372 6.42314 17.6274C6.35552 17.7176 6.31582 17.8257 6.30896 17.9383C6.30211 18.0509 6.32841 18.163 6.38459 18.2608C6.44078 18.3585 6.52437 18.4376 6.62498 18.4881L11.2194 20.7911C11.31 20.8366 11.4109 20.8572 11.5119 20.8509C11.613 20.8447 11.7106 20.8117 11.7949 20.7554L15.6082 18.206L13.326 21.0686C13.2763 21.1309 13.2401 21.2029 13.2196 21.28C13.1992 21.3571 13.1949 21.4376 13.2071 21.5164C13.2193 21.5952 13.2477 21.6706 13.2905 21.7378C13.3333 21.8051 13.3896 21.8627 13.4558 21.9069L20.3474 26.513C20.4272 26.5661 20.519 26.5985 20.6145 26.607C20.7099 26.6155 20.806 26.5999 20.8939 26.5617C20.9818 26.5235 21.0588 26.4638 21.1178 26.3881C21.1768 26.3124 21.216 26.2231 21.2318 26.1283L23.529 12.3103Z" fill="white"/>
</svg>
